<svg width="784" height="903" viewBox="0 0 784 903" fill="none" xmlns="http://www.w3.org/2000/svg">
<g filter="url(#filter0_f)">
<path d="M168.834 402.414L909.67 830.258L1015.5 769.154L750.919 616.336V494.129L168.834 158L63 219.104L274.667 341.311M168.834 402.414L274.667 341.311M168.834 402.414L63.0005 463.636L327.585 616.336L645.086 433.025M274.667 341.311L380.502 402.414M274.668 463.636L486.336 341.311M115.916 188.611L750.918 555.232M962.587 799.647L327.584 433.025M750.92 494.129L539.253 616.336" stroke="url(#paint0_linear)" stroke-opacity="0.1" stroke-width="18" stroke-miterlimit="10" stroke-linecap="round" stroke-linejoin="round"/>
</g>
<path d="M735.937 478.553V600.76L1000.52 753.578L894.687 814.682L153.851 386.839L259.685 325.735L48.0176 203.528L153.851 142.424L735.937 478.553Z" stroke="url(#paint1_linear)" stroke-width="0.916301" stroke-miterlimit="10" stroke-linecap="round" stroke-linejoin="round"/>
<path d="M153.851 386.838L48.0176 448.061L312.602 600.76L630.103 417.449" stroke="url(#paint2_linear)" stroke-width="0.916301" stroke-miterlimit="10" stroke-linecap="round" stroke-linejoin="round"/>
<path d="M259.686 448.061L471.353 325.735" stroke="url(#paint3_linear)" stroke-width="0.916301" stroke-miterlimit="10" stroke-linecap="round" stroke-linejoin="round"/>
<path d="M100.934 173.035L735.936 539.656" stroke="url(#paint4_linear)" stroke-width="0.916301" stroke-miterlimit="10" stroke-linecap="round" stroke-linejoin="round"/>
<path d="M947.604 784.071L312.602 417.449" stroke="url(#paint5_linear)" stroke-width="0.916301" stroke-miterlimit="10" stroke-linecap="round" stroke-linejoin="round"/>
<path d="M365.519 386.838L259.686 325.735" stroke="url(#paint6_linear)" stroke-width="0.916301" stroke-miterlimit="10" stroke-linecap="round" stroke-linejoin="round"/>
<path d="M735.937 478.553L524.27 600.76" stroke="url(#paint7_linear)" stroke-width="0.916301" stroke-miterlimit="10" stroke-linecap="round" stroke-linejoin="round"/>
<path d="M149.834 402.414L890.67 830.258L996.504 769.154L731.919 616.336V494.129L149.834 158L44 219.104L255.667 341.311M149.834 402.414L255.667 341.311M149.834 402.414L44.0005 463.636L308.585 616.336L626.086 433.025M255.667 341.311L361.502 402.414M255.668 463.636L467.336 341.311M96.916 188.611L731.918 555.232M943.587 799.647L308.584 433.025M731.92 494.129L520.253 616.336" stroke="url(#paint8_linear)" stroke-opacity="0.3" stroke-width="0.916301" stroke-miterlimit="10" stroke-linecap="round" stroke-linejoin="round"/>
<path d="M153.851 402.262C162.37 402.262 169.275 395.357 169.275 386.838C169.275 378.32 162.37 371.414 153.851 371.414C145.332 371.414 138.427 378.32 138.427 386.838C138.427 395.357 145.332 402.262 153.851 402.262Z" fill="#E4D4D7"/>
<path d="M48.0172 457.078C52.9973 457.078 57.0345 453.041 57.0345 448.061C57.0345 443.081 52.9973 439.043 48.0172 439.043C43.0371 439.043 39 443.081 39 448.061C39 453.041 43.0371 457.078 48.0172 457.078Z" fill="#E4D4D7"/>
<path d="M153.851 157.848C162.37 157.848 169.275 150.943 169.275 142.424C169.275 133.906 162.37 127 153.851 127C145.332 127 138.427 133.906 138.427 142.424C138.427 150.943 145.332 157.848 153.851 157.848Z" fill="#E4D4D7"/>
<path d="M735.936 493.977C744.454 493.977 751.36 487.072 751.36 478.553C751.36 470.035 744.454 463.129 735.936 463.129C727.417 463.129 720.512 470.035 720.512 478.553C720.512 487.072 727.417 493.977 735.936 493.977Z" fill="#E4D4D7"/>
<path d="M312.601 609.778C317.581 609.778 321.618 605.74 321.618 600.76C321.618 595.78 317.581 591.743 312.601 591.743C307.621 591.743 303.584 595.78 303.584 600.76C303.584 605.74 307.621 609.778 312.601 609.778Z" fill="#E4D4D7"/>
<path d="M735.937 548.674C740.917 548.674 744.954 544.637 744.954 539.657C744.954 534.677 740.917 530.64 735.937 530.64C730.957 530.64 726.92 534.677 726.92 539.657C726.92 544.637 730.957 548.674 735.937 548.674Z" fill="#E4D4D7"/>
<path d="M524.269 609.778C529.249 609.778 533.286 605.74 533.286 600.76C533.286 595.78 529.249 591.743 524.269 591.743C519.289 591.743 515.252 595.78 515.252 600.76C515.252 605.74 519.289 609.778 524.269 609.778Z" fill="#E4D4D7"/>
<path d="M577.185 579.285C582.165 579.285 586.202 575.248 586.202 570.268C586.202 565.288 582.165 561.25 577.185 561.25C572.205 561.25 568.168 565.288 568.168 570.268C568.168 575.248 572.205 579.285 577.185 579.285Z" fill="#E4D4D7"/>
<path d="M683.019 518.181C687.999 518.181 692.036 514.144 692.036 509.164C692.036 504.184 687.999 500.147 683.019 500.147C678.039 500.147 674.002 504.184 674.002 509.164C674.002 514.144 678.039 518.181 683.019 518.181Z" fill="#E4D4D7"/>
<path d="M577.185 457.078C582.165 457.078 586.202 453.041 586.202 448.061C586.202 443.081 582.165 439.043 577.185 439.043C572.205 439.043 568.168 443.081 568.168 448.061C568.168 453.041 572.205 457.078 577.185 457.078Z" fill="#E4D4D7"/>
<path d="M630.102 426.467C635.082 426.467 639.119 422.43 639.119 417.45C639.119 412.47 635.082 408.433 630.102 408.433C625.122 408.433 621.085 412.47 621.085 417.45C621.085 422.43 625.122 426.467 630.102 426.467Z" fill="#E4D4D7"/>
<path d="M471.352 334.752C476.332 334.752 480.369 330.715 480.369 325.735C480.369 320.755 476.332 316.718 471.352 316.718C466.372 316.718 462.335 320.755 462.335 325.735C462.335 330.715 466.372 334.752 471.352 334.752Z" fill="#E4D4D7"/>
<path d="M365.518 395.856C370.498 395.856 374.535 391.819 374.535 386.839C374.535 381.858 370.498 377.821 365.518 377.821C360.538 377.821 356.501 381.858 356.501 386.839C356.501 391.819 360.538 395.856 365.518 395.856Z" fill="#E4D4D7"/>
<path d="M471.352 518.181C476.332 518.181 480.369 514.144 480.369 509.164C480.369 504.184 476.332 500.147 471.352 500.147C466.372 500.147 462.335 504.184 462.335 509.164C462.335 514.144 466.372 518.181 471.352 518.181Z" fill="#E4D4D7"/>
<path d="M418.435 548.674C423.415 548.674 427.452 544.637 427.452 539.657C427.452 534.677 423.415 530.64 418.435 530.64C413.455 530.64 409.418 534.677 409.418 539.657C409.418 544.637 413.455 548.674 418.435 548.674Z" fill="#E4D4D7"/>
<path d="M312.601 426.467C317.581 426.467 321.618 422.43 321.618 417.45C321.618 412.47 317.581 408.433 312.601 408.433C307.621 408.433 303.584 412.47 303.584 417.45C303.584 422.43 307.621 426.467 312.601 426.467Z" fill="#E4D4D7"/>
<path d="M259.685 457.078C264.665 457.078 268.702 453.041 268.702 448.061C268.702 443.081 264.665 439.043 259.685 439.043C254.705 439.043 250.668 443.081 250.668 448.061C250.668 453.041 254.705 457.078 259.685 457.078Z" fill="#E4D4D7"/>
<path d="M259.685 334.752C264.665 334.752 268.702 330.715 268.702 325.735C268.702 320.755 264.665 316.718 259.685 316.718C254.705 316.718 250.668 320.755 250.668 325.735C250.668 330.715 254.705 334.752 259.685 334.752Z" fill="#E4D4D7"/>
<path d="M48.0172 212.545C52.9973 212.545 57.0345 208.508 57.0345 203.528C57.0345 198.548 52.9973 194.511 48.0172 194.511C43.0371 194.511 39 198.548 39 203.528C39 208.508 43.0371 212.545 48.0172 212.545Z" fill="#E4D4D7"/>
<path d="M100.933 182.053C105.913 182.053 109.95 178.015 109.95 173.035C109.95 168.055 105.913 164.018 100.933 164.018C95.9532 164.018 91.916 168.055 91.916 173.035C91.916 178.015 95.9532 182.053 100.933 182.053Z" fill="#E4D4D7"/>
<path d="M418.435 670.881C423.415 670.881 427.452 666.844 427.452 661.864C427.452 656.884 423.415 652.847 418.435 652.847C413.455 652.847 409.418 656.884 409.418 661.864C409.418 666.844 413.455 670.881 418.435 670.881Z" fill="#E4D4D7"/>
<path d="M577.185 273.649C582.165 273.649 586.202 269.612 586.202 264.631C586.202 259.651 582.165 255.614 577.185 255.614C572.205 255.614 568.168 259.651 568.168 264.631C568.168 269.612 572.205 273.649 577.185 273.649Z" fill="#E4D4D7"/>
<path d="M100.933 304.26C105.913 304.26 109.95 300.222 109.95 295.242C109.95 290.262 105.913 286.225 100.933 286.225C95.9532 286.225 91.916 290.262 91.916 295.242C91.916 300.222 95.9532 304.26 100.933 304.26Z" fill="#E4D4D7"/>
<path d="M418.435 371.77C426.953 371.77 433.859 364.865 433.859 356.346C433.859 347.828 426.953 340.922 418.435 340.922C409.916 340.922 403.011 347.828 403.011 356.346C403.011 364.865 409.916 371.77 418.435 371.77Z" fill="url(#paint9_radial)"/>
<path d="M153.851 402.262C162.37 402.262 169.275 395.357 169.275 386.838C169.275 378.32 162.37 371.414 153.851 371.414C145.332 371.414 138.427 378.32 138.427 386.838C138.427 395.357 145.332 402.262 153.851 402.262Z" fill="#E4D4D7"/>
<path d="M48.0172 457.078C52.9973 457.078 57.0345 453.041 57.0345 448.061C57.0345 443.081 52.9973 439.043 48.0172 439.043C43.0371 439.043 39 443.081 39 448.061C39 453.041 43.0371 457.078 48.0172 457.078Z" fill="#E4D4D7"/>
<path d="M153.851 157.848C162.37 157.848 169.275 150.943 169.275 142.424C169.275 133.906 162.37 127 153.851 127C145.332 127 138.427 133.906 138.427 142.424C138.427 150.943 145.332 157.848 153.851 157.848Z" fill="#E4D4D7"/>
<path d="M735.936 493.977C744.454 493.977 751.36 487.072 751.36 478.553C751.36 470.035 744.454 463.129 735.936 463.129C727.417 463.129 720.512 470.035 720.512 478.553C720.512 487.072 727.417 493.977 735.936 493.977Z" fill="#E4D4D7"/>
<path d="M312.601 609.778C317.581 609.778 321.618 605.74 321.618 600.76C321.618 595.78 317.581 591.743 312.601 591.743C307.621 591.743 303.584 595.78 303.584 600.76C303.584 605.74 307.621 609.778 312.601 609.778Z" fill="#E4D4D7"/>
<path d="M735.937 548.674C740.917 548.674 744.954 544.637 744.954 539.657C744.954 534.677 740.917 530.64 735.937 530.64C730.957 530.64 726.92 534.677 726.92 539.657C726.92 544.637 730.957 548.674 735.937 548.674Z" fill="#E4D4D7"/>
<path d="M524.269 609.778C529.249 609.778 533.286 605.74 533.286 600.76C533.286 595.78 529.249 591.743 524.269 591.743C519.289 591.743 515.252 595.78 515.252 600.76C515.252 605.74 519.289 609.778 524.269 609.778Z" fill="#E4D4D7"/>
<path d="M577.185 579.285C582.165 579.285 586.202 575.248 586.202 570.268C586.202 565.288 582.165 561.25 577.185 561.25C572.205 561.25 568.168 565.288 568.168 570.268C568.168 575.248 572.205 579.285 577.185 579.285Z" fill="#E4D4D7"/>
<path d="M683.019 518.181C687.999 518.181 692.036 514.144 692.036 509.164C692.036 504.184 687.999 500.147 683.019 500.147C678.039 500.147 674.002 504.184 674.002 509.164C674.002 514.144 678.039 518.181 683.019 518.181Z" fill="#E4D4D7"/>
<path d="M577.185 457.078C582.165 457.078 586.202 453.041 586.202 448.061C586.202 443.081 582.165 439.043 577.185 439.043C572.205 439.043 568.168 443.081 568.168 448.061C568.168 453.041 572.205 457.078 577.185 457.078Z" fill="#E4D4D7"/>
<path d="M630.102 426.467C635.082 426.467 639.119 422.43 639.119 417.45C639.119 412.47 635.082 408.433 630.102 408.433C625.122 408.433 621.085 412.47 621.085 417.45C621.085 422.43 625.122 426.467 630.102 426.467Z" fill="#E4D4D7"/>
<path d="M471.352 334.752C476.332 334.752 480.369 330.715 480.369 325.735C480.369 320.755 476.332 316.718 471.352 316.718C466.372 316.718 462.335 320.755 462.335 325.735C462.335 330.715 466.372 334.752 471.352 334.752Z" fill="#E4D4D7"/>
<path d="M365.518 395.856C370.498 395.856 374.535 391.819 374.535 386.839C374.535 381.858 370.498 377.821 365.518 377.821C360.538 377.821 356.501 381.858 356.501 386.839C356.501 391.819 360.538 395.856 365.518 395.856Z" fill="#E4D4D7"/>
<path d="M471.352 518.181C476.332 518.181 480.369 514.144 480.369 509.164C480.369 504.184 476.332 500.147 471.352 500.147C466.372 500.147 462.335 504.184 462.335 509.164C462.335 514.144 466.372 518.181 471.352 518.181Z" fill="#E4D4D7"/>
<path d="M418.435 548.674C423.415 548.674 427.452 544.637 427.452 539.657C427.452 534.677 423.415 530.64 418.435 530.64C413.455 530.64 409.418 534.677 409.418 539.657C409.418 544.637 413.455 548.674 418.435 548.674Z" fill="#E4D4D7"/>
<path d="M312.601 426.467C317.581 426.467 321.618 422.43 321.618 417.45C321.618 412.47 317.581 408.433 312.601 408.433C307.621 408.433 303.584 412.47 303.584 417.45C303.584 422.43 307.621 426.467 312.601 426.467Z" fill="#E4D4D7"/>
<path d="M259.685 457.078C264.665 457.078 268.702 453.041 268.702 448.061C268.702 443.081 264.665 439.043 259.685 439.043C254.705 439.043 250.668 443.081 250.668 448.061C250.668 453.041 254.705 457.078 259.685 457.078Z" fill="#E4D4D7"/>
<path d="M259.685 334.752C264.665 334.752 268.702 330.715 268.702 325.735C268.702 320.755 264.665 316.718 259.685 316.718C254.705 316.718 250.668 320.755 250.668 325.735C250.668 330.715 254.705 334.752 259.685 334.752Z" fill="#E4D4D7"/>
<path d="M48.0172 212.545C52.9973 212.545 57.0345 208.508 57.0345 203.528C57.0345 198.548 52.9973 194.511 48.0172 194.511C43.0371 194.511 39 198.548 39 203.528C39 208.508 43.0371 212.545 48.0172 212.545Z" fill="#E4D4D7"/>
<path d="M100.933 182.053C105.913 182.053 109.95 178.015 109.95 173.035C109.95 168.055 105.913 164.018 100.933 164.018C95.9532 164.018 91.916 168.055 91.916 173.035C91.916 178.015 95.9532 182.053 100.933 182.053Z" fill="#E4D4D7"/>
<path d="M418.435 670.881C423.415 670.881 427.452 666.844 427.452 661.864C427.452 656.884 423.415 652.847 418.435 652.847C413.455 652.847 409.418 656.884 409.418 661.864C409.418 666.844 413.455 670.881 418.435 670.881Z" fill="#E4D4D7"/>
<path d="M577.185 273.649C582.165 273.649 586.202 269.612 586.202 264.631C586.202 259.651 582.165 255.614 577.185 255.614C572.205 255.614 568.168 259.651 568.168 264.631C568.168 269.612 572.205 273.649 577.185 273.649Z" fill="#E4D4D7"/>
<path d="M100.933 304.26C105.913 304.26 109.95 300.222 109.95 295.242C109.95 290.262 105.913 286.225 100.933 286.225C95.9532 286.225 91.916 290.262 91.916 295.242C91.916 300.222 95.9532 304.26 100.933 304.26Z" fill="#E4D4D7"/>
<g filter="url(#filter1_f)">
<circle cx="564" cy="339" r="314" fill="#3B0CEF" fill-opacity="0.1"/>
</g>
<defs>
<filter id="filter0_f" x="17" y="112" width="1044.5" height="764.258" filterUnits="userSpaceOnUse" color-interpolation-filters="sRGB">
<feFlood flood-opacity="0" result="BackgroundImageFix"/>
<feBlend mode="normal" in="SourceGraphic" in2="BackgroundImageFix" result="shape"/>
<feGaussianBlur stdDeviation="18.5" result="effect1_foregroundBlur"/>
</filter>
<filter id="filter1_f" x="0" y="-225" width="1128" height="1128" filterUnits="userSpaceOnUse" color-interpolation-filters="sRGB">
<feFlood flood-opacity="0" result="BackgroundImageFix"/>
<feBlend mode="normal" in="SourceGraphic" in2="BackgroundImageFix" result="shape"/>
<feGaussianBlur stdDeviation="125" result="effect1_foregroundBlur"/>
</filter>
<linearGradient id="paint0_linear" x1="539.252" y1="158" x2="539.252" y2="830.258" gradientUnits="userSpaceOnUse">
<stop stop-color="#333BFF"/>
<stop offset="1" stop-color="#FF5757"/>
</linearGradient>
<linearGradient id="paint1_linear" x1="524.269" y1="142.424" x2="524.269" y2="814.682" gradientUnits="userSpaceOnUse">
<stop stop-color="#F96A9D"/>
<stop offset="1" stop-color="#115FBB" stop-opacity="0.5"/>
</linearGradient>
<linearGradient id="paint2_linear" x1="339.06" y1="386.838" x2="339.06" y2="600.76" gradientUnits="userSpaceOnUse">
<stop stop-color="#F96A9D"/>
<stop offset="1" stop-color="#115FBB" stop-opacity="0.5"/>
</linearGradient>
<linearGradient id="paint3_linear" x1="365.519" y1="325.735" x2="365.519" y2="448.061" gradientUnits="userSpaceOnUse">
<stop stop-color="#F96A9D"/>
<stop offset="1" stop-color="#115FBB" stop-opacity="0.5"/>
</linearGradient>
<linearGradient id="paint4_linear" x1="418.435" y1="173.035" x2="418.435" y2="539.656" gradientUnits="userSpaceOnUse">
<stop stop-color="#F96A9D"/>
<stop offset="1" stop-color="#115FBB" stop-opacity="0.5"/>
</linearGradient>
<linearGradient id="paint5_linear" x1="630.103" y1="417.449" x2="630.103" y2="784.071" gradientUnits="userSpaceOnUse">
<stop stop-color="#F96A9D"/>
<stop offset="1" stop-color="#115FBB" stop-opacity="0.5"/>
</linearGradient>
<linearGradient id="paint6_linear" x1="312.602" y1="325.735" x2="312.602" y2="386.838" gradientUnits="userSpaceOnUse">
<stop stop-color="#F96A9D"/>
<stop offset="1" stop-color="#115FBB" stop-opacity="0.5"/>
</linearGradient>
<linearGradient id="paint7_linear" x1="630.103" y1="478.553" x2="630.103" y2="600.76" gradientUnits="userSpaceOnUse">
<stop stop-color="#F96A9D"/>
<stop offset="1" stop-color="#115FBB" stop-opacity="0.5"/>
</linearGradient>
<linearGradient id="paint8_linear" x1="626.087" y1="494.129" x2="626.087" y2="616.336" gradientUnits="userSpaceOnUse">
<stop stop-color="#F96A9D"/>
<stop offset="1" stop-color="#115FBB" stop-opacity="0.5"/>
</linearGradient>
<radialGradient id="paint9_radial" cx="0" cy="0" r="1" gradientUnits="userSpaceOnUse" gradientTransform="translate(418.435 356.346) rotate(90) scale(15.4242)">
<stop stop-color="white"/>
<stop offset="1" stop-color="white"/>
</radialGradient>
</defs>
</svg>
