<svg width="24" height="24" viewBox="0 0 24 24" fill="none" xmlns="http://www.w3.org/2000/svg">
<path d="M6.50015 10C6.27715 10 6.06315 10.034 5.85015 10.065C5.91915 9.833 5.99015 9.597 6.10415 9.385C6.21815 9.077 6.39615 8.81 6.57315 8.541C6.72115 8.25 6.98215 8.053 7.17415 7.804C7.37515 7.562 7.64915 7.401 7.86615 7.2C8.07915 6.99 8.35815 6.885 8.58015 6.737C8.81215 6.604 9.01414 6.457 9.23014 6.387C9.43815 6.301 9.62015 6.227 9.76915 6.165C10.0711 6.04 10.2431 5.968 10.2431 5.968L9.75815 4.03C9.75815 4.03 9.54015 4.082 9.16115 4.174C8.97015 4.222 8.73715 4.278 8.47215 4.345C8.20115 4.395 7.91215 4.532 7.59015 4.657C7.27215 4.799 6.90415 4.895 6.56215 5.123C6.21815 5.341 5.82115 5.523 5.47115 5.815C5.13215 6.116 4.72315 6.377 4.42115 6.76C4.09115 7.118 3.76515 7.494 3.51215 7.922C3.21915 8.33 3.02015 8.778 2.81015 9.221C2.62015 9.664 2.46715 10.117 2.34215 10.557C2.10515 11.439 1.99915 12.277 1.95815 12.994C1.92415 13.712 1.94415 14.309 1.98615 14.741C2.00115 14.945 2.02915 15.143 2.04915 15.28C2.06615 15.389 2.07415 15.448 2.07415 15.448L2.10015 15.442C2.53515 17.474 4.33815 19 6.50015 19C8.98515 19 11.0001 16.985 11.0001 14.5C11.0001 12.015 8.98515 10 6.50015 10ZM17.5001 10C17.2771 10 17.0631 10.034 16.8501 10.065C16.9191 9.833 16.9901 9.597 17.1041 9.385C17.2181 9.077 17.3961 8.81 17.5731 8.541C17.7211 8.25 17.9821 8.053 18.1741 7.804C18.3751 7.562 18.6491 7.401 18.8661 7.2C19.0791 6.99 19.3581 6.885 19.5801 6.737C19.8121 6.604 20.0141 6.457 20.2301 6.387C20.4381 6.301 20.6201 6.227 20.7691 6.165C21.0711 6.04 21.2431 5.968 21.2431 5.968L20.7581 4.03C20.7581 4.03 20.5401 4.082 20.1611 4.174C19.9701 4.222 19.7371 4.278 19.4721 4.345C19.2011 4.395 18.9121 4.532 18.5901 4.657C18.2731 4.8 17.9041 4.895 17.5621 5.124C17.2181 5.342 16.8211 5.524 16.4711 5.816C16.1321 6.117 15.7231 6.378 15.4211 6.76C15.0911 7.118 14.7651 7.494 14.5121 7.922C14.2191 8.33 14.0201 8.778 13.8101 9.221C13.6201 9.664 13.4671 10.117 13.3421 10.557C13.1051 11.439 12.9991 12.277 12.9581 12.994C12.9241 13.712 12.9441 14.309 12.9861 14.741C13.0011 14.945 13.0291 15.143 13.0491 15.28C13.0661 15.389 13.0741 15.448 13.0741 15.448L13.1001 15.442C13.5351 17.474 15.3381 19 17.5001 19C19.9851 19 22.0001 16.985 22.0001 14.5C22.0001 12.015 19.9851 10 17.5001 10Z" fill="#F2F2F2"/>
</svg>
