<svg width="48" height="48" viewBox="0 0 48 48" fill="none" xmlns="http://www.w3.org/2000/svg">
<circle cx="24" cy="24" r="23.5" stroke="url(#paint0_linear)"/>
<path d="M18.5001 22C18.2771 22 18.0631 22.034 17.8501 22.065C17.9191 21.833 17.9901 21.597 18.1041 21.385C18.2181 21.077 18.3961 20.81 18.5731 20.541C18.7211 20.25 18.9821 20.053 19.1741 19.804C19.3751 19.562 19.6491 19.401 19.8661 19.2C20.0791 18.99 20.3581 18.885 20.5801 18.737C20.8121 18.604 21.0141 18.457 21.2301 18.387C21.4381 18.301 21.6201 18.227 21.7691 18.165C22.0711 18.04 22.2431 17.968 22.2431 17.968L21.7581 16.03C21.7581 16.03 21.5401 16.082 21.1611 16.174C20.9701 16.222 20.7371 16.278 20.4721 16.345C20.2011 16.395 19.9121 16.532 19.5901 16.657C19.2721 16.799 18.9041 16.895 18.5621 17.123C18.2181 17.341 17.8211 17.523 17.4711 17.815C17.1321 18.116 16.7231 18.377 16.4211 18.76C16.0911 19.118 15.7651 19.494 15.5121 19.922C15.2191 20.33 15.0201 20.778 14.8101 21.221C14.6201 21.664 14.4671 22.117 14.3421 22.557C14.1051 23.439 13.9991 24.277 13.9581 24.994C13.9241 25.712 13.9441 26.309 13.9861 26.741C14.0011 26.945 14.0291 27.143 14.0491 27.28C14.0661 27.389 14.0741 27.448 14.0741 27.448L14.1001 27.442C14.5351 29.474 16.3381 31 18.5001 31C20.9851 31 23.0001 28.985 23.0001 26.5C23.0001 24.015 20.9851 22 18.5001 22ZM29.5001 22C29.2771 22 29.0631 22.034 28.8501 22.065C28.9191 21.833 28.9901 21.597 29.1041 21.385C29.2181 21.077 29.3961 20.81 29.5731 20.541C29.7211 20.25 29.9821 20.053 30.1741 19.804C30.3751 19.562 30.6491 19.401 30.8661 19.2C31.0791 18.99 31.3581 18.885 31.5801 18.737C31.8121 18.604 32.0141 18.457 32.2301 18.387C32.4381 18.301 32.6201 18.227 32.7691 18.165C33.0711 18.04 33.2431 17.968 33.2431 17.968L32.7581 16.03C32.7581 16.03 32.5401 16.082 32.1611 16.174C31.9701 16.222 31.7371 16.278 31.4721 16.345C31.2011 16.395 30.9121 16.532 30.5901 16.657C30.2731 16.8 29.9041 16.895 29.5621 17.124C29.2181 17.342 28.8211 17.524 28.4711 17.816C28.1321 18.117 27.7231 18.378 27.4211 18.76C27.0911 19.118 26.7651 19.494 26.5121 19.922C26.2191 20.33 26.0201 20.778 25.8101 21.221C25.6201 21.664 25.4671 22.117 25.3421 22.557C25.1051 23.439 24.9991 24.277 24.9581 24.994C24.9241 25.712 24.9441 26.309 24.9861 26.741C25.0011 26.945 25.0291 27.143 25.0491 27.28C25.0661 27.389 25.0741 27.448 25.0741 27.448L25.1001 27.442C25.5351 29.474 27.3381 31 29.5001 31C31.9851 31 34.0001 28.985 34.0001 26.5C34.0001 24.015 31.9851 22 29.5001 22Z" fill="#F2F2F2"/>
<defs>
<linearGradient id="paint0_linear" x1="24" y1="0" x2="24" y2="48" gradientUnits="userSpaceOnUse">
<stop stop-color="#189CD9"/>
<stop offset="1" stop-color="#1646A3"/>
</linearGradient>
</defs>
</svg>
