<svg width="626" height="336" viewBox="0 0 626 336" fill="none" xmlns="http://www.w3.org/2000/svg">
<g clip-path="url(#clip0)">
<path d="M408.242 157.153V209.117L530.375 274.097L481.521 300.079L139.549 118.155L188.402 92.1729L90.6958 40.209L139.549 14.227L408.242 157.153Z" stroke="white" stroke-width="0.646694" stroke-miterlimit="10" stroke-linecap="round" stroke-linejoin="round"/>
<path d="M139.549 118.155L90.6958 144.187L212.829 209.117L359.388 131.171" stroke="white" stroke-width="0.646694" stroke-miterlimit="10" stroke-linecap="round" stroke-linejoin="round"/>
<path d="M188.402 144.187L286.109 92.1729" stroke="white" stroke-width="0.646694" stroke-miterlimit="10" stroke-linecap="round" stroke-linejoin="round"/>
<path d="M115.122 27.2432L408.241 183.135" stroke="white" stroke-width="0.646694" stroke-miterlimit="10" stroke-linecap="round" stroke-linejoin="round"/>
<path d="M505.948 287.063L212.829 131.171" stroke="white" stroke-width="0.646694" stroke-miterlimit="10" stroke-linecap="round" stroke-linejoin="round"/>
<path d="M237.255 118.155L188.402 92.1729" stroke="white" stroke-width="0.646694" stroke-miterlimit="10" stroke-linecap="round" stroke-linejoin="round"/>
<path d="M408.242 157.153L310.535 209.117" stroke="white" stroke-width="0.646694" stroke-miterlimit="10" stroke-linecap="round" stroke-linejoin="round"/>
<path d="M139.549 124.713C143.482 124.713 146.669 121.777 146.669 118.155C146.669 114.533 143.482 111.596 139.549 111.596C135.617 111.596 132.429 114.533 132.429 118.155C132.429 121.777 135.617 124.713 139.549 124.713Z" fill="white"/>
<path d="M90.6961 148.022C92.9949 148.022 94.8585 146.305 94.8585 144.187C94.8585 142.07 92.9949 140.353 90.6961 140.353C88.3972 140.353 86.5337 142.07 86.5337 144.187C86.5337 146.305 88.3972 148.022 90.6961 148.022Z" fill="white"/>
<path d="M139.549 20.7856C143.482 20.7856 146.669 17.8492 146.669 14.227C146.669 10.6048 143.482 7.66844 139.549 7.66844C135.617 7.66844 132.429 10.6048 132.429 14.227C132.429 17.8492 135.617 20.7856 139.549 20.7856Z" fill="white"/>
<path d="M481.522 306.638C485.454 306.638 488.641 303.701 488.641 300.079C488.641 296.457 485.454 293.521 481.522 293.521C477.589 293.521 474.402 296.457 474.402 300.079C474.402 303.701 477.589 306.638 481.522 306.638Z" fill="white"/>
<path d="M408.242 163.712C412.174 163.712 415.362 160.775 415.362 157.153C415.362 153.531 412.174 150.595 408.242 150.595C404.31 150.595 401.122 153.531 401.122 157.153C401.122 160.775 404.31 163.712 408.242 163.712Z" fill="white"/>
<path d="M212.829 212.951C215.128 212.951 216.991 211.235 216.991 209.117C216.991 206.999 215.128 205.283 212.829 205.283C210.53 205.283 208.667 206.999 208.667 209.117C208.667 211.235 210.53 212.951 212.829 212.951Z" fill="white"/>
<path d="M408.242 186.969C410.541 186.969 412.404 185.253 412.404 183.135C412.404 181.018 410.541 179.301 408.242 179.301C405.943 179.301 404.08 181.018 404.08 183.135C404.08 185.253 405.943 186.969 408.242 186.969Z" fill="white"/>
<path d="M530.375 277.932C532.674 277.932 534.537 276.215 534.537 274.097C534.537 271.98 532.674 270.263 530.375 270.263C528.076 270.263 526.213 271.98 526.213 274.097C526.213 276.215 528.076 277.932 530.375 277.932Z" fill="white"/>
<path d="M578.899 305.477C581.198 305.477 583.062 303.761 583.062 301.643C583.062 299.526 581.198 297.809 578.899 297.809C576.601 297.809 574.737 299.526 574.737 301.643C574.737 303.761 576.601 305.477 578.899 305.477Z" fill="white"/>
<path d="M310.535 212.951C312.834 212.951 314.698 211.235 314.698 209.117C314.698 206.999 312.834 205.283 310.535 205.283C308.237 205.283 306.373 206.999 306.373 209.117C306.373 211.235 308.237 212.951 310.535 212.951Z" fill="white"/>
<path d="M334.962 199.986C337.261 199.986 339.124 198.269 339.124 196.151C339.124 194.034 337.261 192.317 334.962 192.317C332.663 192.317 330.8 194.034 330.8 196.151C330.8 198.269 332.663 199.986 334.962 199.986Z" fill="white"/>
<path d="M383.815 174.004C386.114 174.004 387.978 172.287 387.978 170.169C387.978 168.052 386.114 166.335 383.815 166.335C381.517 166.335 379.653 168.052 379.653 170.169C379.653 172.287 381.517 174.004 383.815 174.004Z" fill="white"/>
<path d="M334.962 148.022C337.261 148.022 339.124 146.305 339.124 144.187C339.124 142.07 337.261 140.353 334.962 140.353C332.663 140.353 330.8 142.07 330.8 144.187C330.8 146.305 332.663 148.022 334.962 148.022Z" fill="white"/>
<path d="M359.389 135.005C361.687 135.005 363.551 133.289 363.551 131.171C363.551 129.054 361.687 127.337 359.389 127.337C357.09 127.337 355.226 129.054 355.226 131.171C355.226 133.289 357.09 135.005 359.389 135.005Z" fill="white"/>
<path d="M286.109 96.0072C288.408 96.0072 290.271 94.2905 290.271 92.173C290.271 90.0554 288.408 88.3387 286.109 88.3387C283.81 88.3387 281.947 90.0554 281.947 92.173C281.947 94.2905 283.81 96.0072 286.109 96.0072Z" fill="white"/>
<path d="M237.256 121.989C239.554 121.989 241.418 120.273 241.418 118.155C241.418 116.037 239.554 114.321 237.256 114.321C234.957 114.321 233.093 116.037 233.093 118.155C233.093 120.273 234.957 121.989 237.256 121.989Z" fill="white"/>
<path d="M286.109 174.004C288.408 174.004 290.271 172.287 290.271 170.169C290.271 168.052 288.408 166.335 286.109 166.335C283.81 166.335 281.947 168.052 281.947 170.169C281.947 172.287 283.81 174.004 286.109 174.004Z" fill="white"/>
<path d="M261.682 186.969C263.981 186.969 265.845 185.253 265.845 183.135C265.845 181.018 263.981 179.301 261.682 179.301C259.383 179.301 257.52 181.018 257.52 183.135C257.52 185.253 259.383 186.969 261.682 186.969Z" fill="white"/>
<path d="M212.829 135.005C215.128 135.005 216.991 133.289 216.991 131.171C216.991 129.054 215.128 127.337 212.829 127.337C210.53 127.337 208.667 129.054 208.667 131.171C208.667 133.289 210.53 135.005 212.829 135.005Z" fill="white"/>
<path d="M188.402 148.022C190.701 148.022 192.565 146.305 192.565 144.187C192.565 142.07 190.701 140.353 188.402 140.353C186.104 140.353 184.24 142.07 184.24 144.187C184.24 146.305 186.104 148.022 188.402 148.022Z" fill="white"/>
<path d="M188.402 96.0072C190.701 96.0072 192.565 94.2905 192.565 92.173C192.565 90.0554 190.701 88.3387 188.402 88.3387C186.104 88.3387 184.24 90.0554 184.24 92.173C184.24 94.2905 186.104 96.0072 188.402 96.0072Z" fill="white"/>
<path d="M90.6961 44.0432C92.9949 44.0432 94.8585 42.3266 94.8585 40.209C94.8585 38.0914 92.9949 36.3747 90.6961 36.3747C88.3972 36.3747 86.5337 38.0914 86.5337 40.209C86.5337 42.3266 88.3972 44.0432 90.6961 44.0432Z" fill="white"/>
<path d="M115.123 31.0774C117.422 31.0774 119.285 29.3608 119.285 27.2432C119.285 25.1256 117.422 23.409 115.123 23.409C112.824 23.409 110.96 25.1256 110.96 27.2432C110.96 29.3608 112.824 31.0774 115.123 31.0774Z" fill="white"/>
<path d="M261.682 238.933C263.981 238.933 265.845 237.217 265.845 235.099C265.845 232.981 263.981 231.265 261.682 231.265C259.383 231.265 257.52 232.981 257.52 235.099C257.52 237.217 259.383 238.933 261.682 238.933Z" fill="white"/>
<path d="M334.962 70.0252C337.261 70.0252 339.124 68.3085 339.124 66.191C339.124 64.0734 337.261 62.3567 334.962 62.3567C332.663 62.3567 330.8 64.0734 330.8 66.191C330.8 68.3085 332.663 70.0252 334.962 70.0252Z" fill="white"/>
<path d="M115.123 83.0414C117.422 83.0414 119.285 81.3248 119.285 79.2072C119.285 77.0896 117.422 75.3729 115.123 75.3729C112.824 75.3729 110.96 77.0896 110.96 79.2072C110.96 81.3248 112.824 83.0414 115.123 83.0414Z" fill="white"/>
<path d="M261.682 111.748C265.614 111.748 268.802 108.811 268.802 105.189C268.802 101.567 265.614 98.6306 261.682 98.6306C257.75 98.6306 254.562 101.567 254.562 105.189C254.562 108.811 257.75 111.748 261.682 111.748Z" fill="white"/>
<path d="M139.549 124.713C143.482 124.713 146.669 121.777 146.669 118.155C146.669 114.533 143.482 111.596 139.549 111.596C135.617 111.596 132.429 114.533 132.429 118.155C132.429 121.777 135.617 124.713 139.549 124.713Z" fill="white"/>
<path d="M90.6961 148.022C92.9949 148.022 94.8585 146.305 94.8585 144.187C94.8585 142.07 92.9949 140.353 90.6961 140.353C88.3972 140.353 86.5337 142.07 86.5337 144.187C86.5337 146.305 88.3972 148.022 90.6961 148.022Z" fill="white"/>
<path d="M139.549 20.7856C143.482 20.7856 146.669 17.8492 146.669 14.227C146.669 10.6048 143.482 7.66844 139.549 7.66844C135.617 7.66844 132.429 10.6048 132.429 14.227C132.429 17.8492 135.617 20.7856 139.549 20.7856Z" fill="white"/>
<path d="M481.522 306.638C485.454 306.638 488.641 303.701 488.641 300.079C488.641 296.457 485.454 293.521 481.522 293.521C477.589 293.521 474.402 296.457 474.402 300.079C474.402 303.701 477.589 306.638 481.522 306.638Z" fill="white"/>
<path d="M408.242 163.712C412.174 163.712 415.362 160.775 415.362 157.153C415.362 153.531 412.174 150.595 408.242 150.595C404.31 150.595 401.122 153.531 401.122 157.153C401.122 160.775 404.31 163.712 408.242 163.712Z" fill="white"/>
<path d="M212.829 212.951C215.128 212.951 216.991 211.235 216.991 209.117C216.991 206.999 215.128 205.283 212.829 205.283C210.53 205.283 208.667 206.999 208.667 209.117C208.667 211.235 210.53 212.951 212.829 212.951Z" fill="white"/>
<path d="M408.242 186.969C410.541 186.969 412.404 185.253 412.404 183.135C412.404 181.018 410.541 179.301 408.242 179.301C405.943 179.301 404.08 181.018 404.08 183.135C404.08 185.253 405.943 186.969 408.242 186.969Z" fill="white"/>
<path d="M530.375 277.932C532.674 277.932 534.537 276.215 534.537 274.097C534.537 271.98 532.674 270.263 530.375 270.263C528.076 270.263 526.213 271.98 526.213 274.097C526.213 276.215 528.076 277.932 530.375 277.932Z" fill="white"/>
<path d="M578.899 305.477C581.198 305.477 583.062 303.761 583.062 301.643C583.062 299.526 581.198 297.809 578.899 297.809C576.601 297.809 574.737 299.526 574.737 301.643C574.737 303.761 576.601 305.477 578.899 305.477Z" fill="white"/>
<path d="M310.535 212.951C312.834 212.951 314.698 211.235 314.698 209.117C314.698 206.999 312.834 205.283 310.535 205.283C308.237 205.283 306.373 206.999 306.373 209.117C306.373 211.235 308.237 212.951 310.535 212.951Z" fill="white"/>
<path d="M334.962 199.986C337.261 199.986 339.124 198.269 339.124 196.151C339.124 194.034 337.261 192.317 334.962 192.317C332.663 192.317 330.8 194.034 330.8 196.151C330.8 198.269 332.663 199.986 334.962 199.986Z" fill="white"/>
<path d="M383.815 174.004C386.114 174.004 387.978 172.287 387.978 170.169C387.978 168.052 386.114 166.335 383.815 166.335C381.517 166.335 379.653 168.052 379.653 170.169C379.653 172.287 381.517 174.004 383.815 174.004Z" fill="white"/>
<path d="M334.962 148.022C337.261 148.022 339.124 146.305 339.124 144.187C339.124 142.07 337.261 140.353 334.962 140.353C332.663 140.353 330.8 142.07 330.8 144.187C330.8 146.305 332.663 148.022 334.962 148.022Z" fill="white"/>
<path d="M359.389 135.005C361.687 135.005 363.551 133.289 363.551 131.171C363.551 129.054 361.687 127.337 359.389 127.337C357.09 127.337 355.226 129.054 355.226 131.171C355.226 133.289 357.09 135.005 359.389 135.005Z" fill="white"/>
<path d="M286.109 96.0072C288.408 96.0072 290.271 94.2905 290.271 92.173C290.271 90.0554 288.408 88.3387 286.109 88.3387C283.81 88.3387 281.947 90.0554 281.947 92.173C281.947 94.2905 283.81 96.0072 286.109 96.0072Z" fill="white"/>
<path d="M237.256 121.989C239.554 121.989 241.418 120.273 241.418 118.155C241.418 116.037 239.554 114.321 237.256 114.321C234.957 114.321 233.093 116.037 233.093 118.155C233.093 120.273 234.957 121.989 237.256 121.989Z" fill="white"/>
<path d="M286.109 174.004C288.408 174.004 290.271 172.287 290.271 170.169C290.271 168.052 288.408 166.335 286.109 166.335C283.81 166.335 281.947 168.052 281.947 170.169C281.947 172.287 283.81 174.004 286.109 174.004Z" fill="white"/>
<path d="M261.682 186.969C263.981 186.969 265.845 185.253 265.845 183.135C265.845 181.018 263.981 179.301 261.682 179.301C259.383 179.301 257.52 181.018 257.52 183.135C257.52 185.253 259.383 186.969 261.682 186.969Z" fill="white"/>
<path d="M212.829 135.005C215.128 135.005 216.991 133.289 216.991 131.171C216.991 129.054 215.128 127.337 212.829 127.337C210.53 127.337 208.667 129.054 208.667 131.171C208.667 133.289 210.53 135.005 212.829 135.005Z" fill="white"/>
<path d="M188.402 148.022C190.701 148.022 192.565 146.305 192.565 144.187C192.565 142.07 190.701 140.353 188.402 140.353C186.104 140.353 184.24 142.07 184.24 144.187C184.24 146.305 186.104 148.022 188.402 148.022Z" fill="white"/>
<path d="M188.402 96.0072C190.701 96.0072 192.565 94.2905 192.565 92.173C192.565 90.0554 190.701 88.3387 188.402 88.3387C186.104 88.3387 184.24 90.0554 184.24 92.173C184.24 94.2905 186.104 96.0072 188.402 96.0072Z" fill="white"/>
<path d="M90.6961 44.0432C92.9949 44.0432 94.8585 42.3266 94.8585 40.209C94.8585 38.0914 92.9949 36.3747 90.6961 36.3747C88.3972 36.3747 86.5337 38.0914 86.5337 40.209C86.5337 42.3266 88.3972 44.0432 90.6961 44.0432Z" fill="white"/>
<path d="M115.123 31.0774C117.422 31.0774 119.285 29.3608 119.285 27.2432C119.285 25.1256 117.422 23.409 115.123 23.409C112.824 23.409 110.96 25.1256 110.96 27.2432C110.96 29.3608 112.824 31.0774 115.123 31.0774Z" fill="white"/>
<path d="M261.682 238.933C263.981 238.933 265.845 237.217 265.845 235.099C265.845 232.981 263.981 231.265 261.682 231.265C259.383 231.265 257.52 232.981 257.52 235.099C257.52 237.217 259.383 238.933 261.682 238.933Z" fill="white"/>
<path d="M334.962 70.0252C337.261 70.0252 339.124 68.3085 339.124 66.191C339.124 64.0734 337.261 62.3567 334.962 62.3567C332.663 62.3567 330.8 64.0734 330.8 66.191C330.8 68.3085 332.663 70.0252 334.962 70.0252Z" fill="white"/>
<path d="M115.123 83.0414C117.422 83.0414 119.285 81.3248 119.285 79.2072C119.285 77.0896 117.422 75.3729 115.123 75.3729C112.824 75.3729 110.96 77.0896 110.96 79.2072C110.96 81.3248 112.824 83.0414 115.123 83.0414Z" fill="white"/>
<path d="M261.682 111.748C265.614 111.748 268.802 108.811 268.802 105.189C268.802 101.567 265.614 98.6306 261.682 98.6306C257.75 98.6306 254.562 101.567 254.562 105.189C254.562 108.811 257.75 111.748 261.682 111.748Z" fill="white"/>
</g>
<defs>
<clipPath id="clip0">
<rect width="626" height="336" fill="white"/>
</clipPath>
</defs>
</svg>
